<svg width="281" height="46" viewBox="0 0 281 46" fill="none" xmlns="http://www.w3.org/2000/svg">
<g clip-path="url(#clip0_2_66)">
<path fill-rule="evenodd" clip-rule="evenodd" d="M71.2397 42.2257C69.2169 42.2257 67.7864 41.7847 66.9556 40.8881C66.1176 39.9915 65.7058 38.4442 65.7058 36.2389V22.0673C65.7058 19.862 66.1176 18.3147 66.9556 17.4181C67.7937 16.5215 69.2169 16.0805 71.2397 16.0805H83.3984V20.0066H76.9325C75.8489 20.0066 75.1192 20.1946 74.758 20.5923C74.3968 20.9827 74.2162 21.7708 74.2162 22.9277V27.1936H82.4231V31.1198H74.2162V35.4797C74.2162 36.6149 74.3968 37.3741 74.7508 37.7428C75.1048 38.1188 75.8272 38.3068 76.9325 38.3068H83.8174V42.2329H71.2469L71.2397 42.2257Z" fill="#175594"/>
<path fill-rule="evenodd" clip-rule="evenodd" d="M86.9094 42.2257V19.6306C86.9094 18.1484 87.3285 17.0421 88.1737 16.3191C89.019 15.5816 90.2905 15.2201 91.9737 15.2201C93.3103 15.2201 94.3795 15.5237 95.1597 16.1311C95.9399 16.724 96.6552 17.8013 97.2837 19.3342L100.795 27.8082L104.183 19.3342C104.797 17.7652 105.483 16.6734 106.242 16.1022C107.008 15.5165 108.106 15.2273 109.543 15.2273C111.277 15.2273 112.563 15.5888 113.43 16.3263C114.297 17.0494 114.723 18.1628 114.723 19.6379V42.233H106.336V22.9205L98.7936 42.233H98.5046L91.1285 23.6869V42.233H86.9022L86.9094 42.2257Z" fill="#175594"/>
<path fill-rule="evenodd" clip-rule="evenodd" d="M127.532 19.6957V38.6033C130.429 38.5599 132.488 37.8152 133.745 36.3763C134.995 34.923 135.616 32.5297 135.616 29.1892C135.616 25.8488 134.981 23.4194 133.724 21.9516C132.467 20.491 130.4 19.7391 127.525 19.6957M118.957 0H127.525V16.066H128.854C134.013 16.066 137.979 17.2301 140.724 19.5583C143.469 21.8865 144.849 25.2342 144.849 29.5942C144.849 33.701 143.585 36.8318 141.049 38.9865C138.528 41.1411 134.843 42.2185 130.003 42.2185H118.957V0Z" fill="#175594"/>
<path fill-rule="evenodd" clip-rule="evenodd" d="M162.607 29.4279C162.607 25.8705 162.245 23.1952 161.53 21.4021C160.808 19.6234 159.717 18.7268 158.265 18.7268C156.907 18.7268 155.888 19.5728 155.223 21.2719C154.551 22.9711 154.219 25.5379 154.219 28.9868C154.219 32.4357 154.58 35.2484 155.317 37.0487C156.04 38.8491 157.131 39.7457 158.568 39.7457C159.926 39.7457 160.945 38.8925 161.602 37.1789C162.274 35.4653 162.607 32.8912 162.607 29.4279ZM158.445 43.1874C154.609 43.1874 151.423 41.7919 148.88 39.0009C146.323 36.2028 145.051 32.7105 145.051 28.5024C145.051 24.2943 146.265 21.2719 148.7 18.8497C151.134 16.4348 154.385 15.2273 158.445 15.2273C162.26 15.2273 165.424 16.63 167.967 19.4354C170.51 22.2336 171.782 25.7403 171.782 29.9485C171.782 34.1566 170.575 37.2295 168.169 39.6083C165.764 41.9944 162.527 43.1946 158.445 43.1946" fill="#175594"/>
<path fill-rule="evenodd" clip-rule="evenodd" d="M182.712 34.1421C182.712 35.7545 182.987 36.8535 183.514 37.4319C184.056 38.0031 185.089 38.2996 186.621 38.2996H188.744V42.2257H181.506C178.818 42.2257 176.925 41.6401 175.834 40.4832C174.751 39.3263 174.202 37.2512 174.202 34.2578V0H182.712V34.1421Z" fill="#175594"/>
<path fill-rule="evenodd" clip-rule="evenodd" d="M194.798 42.3776V19.7897C194.798 18.3074 195.218 17.2012 196.063 16.4781C196.908 15.7406 198.179 15.3791 199.863 15.3791C201.199 15.3791 202.269 15.6828 203.049 16.2829C203.829 16.8758 204.544 17.9532 205.173 19.486L208.684 27.9601L212.072 19.486C212.686 17.917 213.372 16.8252 214.131 16.254C214.897 15.6683 215.995 15.3791 217.433 15.3791C219.166 15.3791 220.452 15.7406 221.319 16.4781C222.186 17.2012 222.612 18.3074 222.612 19.7897V42.3776H214.225V23.0723L206.683 42.3776H206.394L199.018 23.8315V42.3776H194.791H194.798Z" fill="#3890D1"/>
<path fill-rule="evenodd" clip-rule="evenodd" d="M223.768 42.3776L230.574 21.055C231.246 18.9293 232.011 17.4543 232.871 16.6155C233.724 15.7913 234.887 15.3791 236.332 15.3791C237.69 15.3791 238.759 15.7406 239.518 16.4781C240.283 17.2012 240.999 18.5894 241.641 20.6429L248.692 42.3776H239.749L238.311 37.6055H229.613L228.226 42.3776H223.768ZM230.697 33.983H237.213L234.085 22.624L230.697 33.983Z" fill="#3890D1"/>
<path fill-rule="evenodd" clip-rule="evenodd" d="M250.094 16.2179H258.604V42.3703H250.094V16.2179ZM249.913 5.47344C249.913 4.23704 250.347 3.18139 251.221 2.30651C252.095 1.43163 253.143 0.997803 254.371 0.997803C255.599 0.997803 256.683 1.43163 257.55 2.29928C258.417 3.16693 258.85 4.22257 258.85 5.48067C258.85 6.73876 258.417 7.77995 257.542 8.64037C256.668 9.50802 255.614 9.94185 254.371 9.94185C253.128 9.94185 252.095 9.50802 251.221 8.63314C250.347 7.75826 249.913 6.70984 249.913 5.48067" fill="#3890D1"/>
<path fill-rule="evenodd" clip-rule="evenodd" d="M262.173 42.3776V38.4514H269.116C270.734 38.4514 271.861 38.2273 272.504 37.7862C273.14 37.3452 273.458 36.6077 273.458 35.5593C273.458 34.2216 272.15 33.1588 269.535 32.3779C268.747 32.1465 268.126 31.9513 267.671 31.8139C265.106 30.9679 263.336 30.0208 262.39 28.9579C261.436 27.9022 260.959 26.4489 260.959 24.6269C260.959 21.8865 261.855 19.8042 263.654 18.3725C265.453 16.9337 268.061 16.2179 271.471 16.2179H278.284V20.144H272.388C271.42 20.144 270.669 20.3175 270.113 20.6573C269.557 20.9972 269.289 21.4816 269.289 22.089C269.289 23.1735 270.438 24.0629 272.721 24.7787C273.226 24.9522 273.617 25.0824 273.869 25.1619C276.658 26.0729 278.551 27.0924 279.533 28.2565C280.509 29.4134 281 31.0475 281 33.1515C281 36.022 280.104 38.2779 278.305 39.9192C276.506 41.5605 274.021 42.3848 270.864 42.3848H262.173V42.3776Z" fill="#3890D1"/>
<path fill-rule="evenodd" clip-rule="evenodd" d="M49.5737 25.2125L33.8318 10.0575H17.418L36.2809 28.2131L27.3804 37.4898L35.5801 45.3854L52.3696 27.9022L49.5737 25.2125Z" fill="#3890D1"/>
<path d="M16.7909 10.8317L8.55688 19.3982L16.757 27.2932L24.991 18.7267L16.7909 10.8317Z" fill="#175594"/>
<path fill-rule="evenodd" clip-rule="evenodd" d="M7.88904 20.0934L0 28.3072L18.3789 46H34.7927L7.88904 20.0934Z" fill="#175594"/>
</g>
<defs>
<clipPath id="clip0_2_66">
<rect width="281" height="46" fill="white"/>
</clipPath>
</defs>
</svg>
